<?xml version="1.0" encoding="UTF-8" standalone="no"?>
<!DOCTYPE svg PUBLIC "-//W3C//DTD SVG 1.0//EN" "http://www.w3.org/TR/2001/PR-SVG-20010719/DTD/svg10.dtd">
<svg width="48cm" height="63cm" viewBox="133 85 945 1241" xmlns="http://www.w3.org/2000/svg" xmlns:xlink="http://www.w3.org/1999/xlink">
  <text font-size="12.8" style="fill: #000000;text-anchor:start;font-family:sans-serif;font-style:normal;font-weight:normal" x="397.334" y="97.7152">
    <tspan x="397.334" y="97.7152">Adlatus</tspan>
  </text>
  <g>
    <ellipse style="fill: #ffffff" cx="176.107" cy="755.172" rx="6" ry="6"/>
    <ellipse style="fill: none; fill-opacity:0; stroke-width: 2; stroke: #000000" cx="176.107" cy="755.172" rx="6" ry="6"/>
    <line style="fill: none; fill-opacity:0; stroke-width: 2; stroke: #000000" x1="152.107" y1="767.172" x2="200.107" y2="767.172"/>
    <line style="fill: none; fill-opacity:0; stroke-width: 2; stroke: #000000" x1="176.107" y1="761.172" x2="176.107" y2="791.172"/>
    <line style="fill: none; fill-opacity:0; stroke-width: 2; stroke: #000000" x1="176.107" y1="791.172" x2="152.107" y2="817.172"/>
    <line style="fill: none; fill-opacity:0; stroke-width: 2; stroke: #000000" x1="176.107" y1="791.172" x2="200.107" y2="817.172"/>
    <text font-size="12.8" style="fill: #000000;text-anchor:middle;font-family:sans-serif;font-style:normal;font-weight:normal" x="176.107" y="841.072">
      <tspan x="176.107" y="841.072">Game Master</tspan>
    </text>
  </g>
  <g>
    <ellipse style="fill: #ffffff" cx="173.44" cy="213.954" rx="6" ry="6"/>
    <ellipse style="fill: none; fill-opacity:0; stroke-width: 2; stroke: #000000" cx="173.44" cy="213.954" rx="6" ry="6"/>
    <line style="fill: none; fill-opacity:0; stroke-width: 2; stroke: #000000" x1="149.44" y1="225.954" x2="197.44" y2="225.954"/>
    <line style="fill: none; fill-opacity:0; stroke-width: 2; stroke: #000000" x1="173.44" y1="219.954" x2="173.44" y2="249.954"/>
    <line style="fill: none; fill-opacity:0; stroke-width: 2; stroke: #000000" x1="173.44" y1="249.954" x2="149.44" y2="275.954"/>
    <line style="fill: none; fill-opacity:0; stroke-width: 2; stroke: #000000" x1="173.44" y1="249.954" x2="197.44" y2="275.954"/>
    <text font-size="12.8" style="fill: #000000;text-anchor:middle;font-family:sans-serif;font-style:normal;font-weight:normal" x="173.44" y="299.854">
      <tspan x="173.44" y="299.854">Player</tspan>
    </text>
  </g>
  <g>
    <ellipse style="fill: #ffffff" cx="1015.75" cy="167.487" rx="33.7" ry="20"/>
    <ellipse style="fill: none; fill-opacity:0; stroke-width: 2; stroke: #000000" cx="1015.75" cy="167.487" rx="33.7" ry="20"/>
    <text font-size="12.8" style="fill: #000000;text-anchor:middle;font-family:sans-serif;font-style:normal;font-weight:normal" x="1015.75" y="171.387">
      <tspan x="1015.75" y="171.387">Maps</tspan>
    </text>
  </g>
  <g>
    <ellipse style="fill: #ffffff" cx="509.428" cy="140.189" rx="32.5" ry="20"/>
    <ellipse style="fill: none; fill-opacity:0; stroke-width: 2; stroke: #000000" cx="509.428" cy="140.189" rx="32.5" ry="20"/>
    <text font-size="12.8" style="fill: #000000;text-anchor:middle;font-family:sans-serif;font-style:normal;font-weight:normal" x="509.428" y="144.089">
      <tspan x="509.428" y="144.089">read</tspan>
    </text>
  </g>
  <g>
    <ellipse style="fill: #ffffff" cx="561.03" cy="184.116" rx="40.95" ry="20"/>
    <ellipse style="fill: none; fill-opacity:0; stroke-width: 2; stroke: #000000" cx="561.03" cy="184.116" rx="40.95" ry="20"/>
    <text font-size="12.8" style="fill: #000000;text-anchor:middle;font-family:sans-serif;font-style:normal;font-weight:normal" x="561.03" y="188.016">
      <tspan x="561.03" y="188.016">create</tspan>
    </text>
  </g>
  <g>
    <line style="fill: none; fill-opacity:0; stroke-width: 2; stroke: #000000" x1="219.01" y1="776.845" x2="615.447" y2="644.459"/>
    <polygon style="fill: #000000" points="622.561,642.084 614.659,649.994 615.447,644.459 611.492,640.509 "/>
    <polygon style="fill: none; fill-opacity:0; stroke-width: 2; stroke: #000000" points="622.561,642.084 614.659,649.994 615.447,644.459 611.492,640.509 "/>
  </g>
  <g>
    <line style="fill: none; fill-opacity:0; stroke-width: 2; stroke: #000000" x1="199.402" y1="241.472" x2="466.685" y2="154.153"/>
    <polygon style="fill: #000000" points="473.814,151.824 465.862,159.682 466.685,154.153 462.756,150.177 "/>
    <polygon style="fill: none; fill-opacity:0; stroke-width: 2; stroke: #000000" points="473.814,151.824 465.862,159.682 466.685,154.153 462.756,150.177 "/>
  </g>
  <g>
    <line style="fill: none; fill-opacity:0; stroke-width: 2; stroke: #000000" x1="541.928" y1="140.189" x2="971.558" y2="164.941"/>
    <polygon style="fill: #000000" points="979.045,165.373 968.774,169.789 971.558,164.941 969.349,159.806 "/>
    <polygon style="fill: none; fill-opacity:0; stroke-width: 2; stroke: #000000" points="979.045,165.373 968.774,169.789 971.558,164.941 969.349,159.806 "/>
  </g>
  <g>
    <line style="fill: none; fill-opacity:0; stroke-width: 2; stroke: #000000" x1="218.911" y1="781.373" x2="653.354" y2="681.921"/>
    <polygon style="fill: #000000" points="660.665,680.248 652.033,687.353 653.354,681.921 649.801,677.605 "/>
    <polygon style="fill: none; fill-opacity:0; stroke-width: 2; stroke: #000000" points="660.665,680.248 652.033,687.353 653.354,681.921 649.801,677.605 "/>
  </g>
  <g>
    <ellipse style="fill: #ffffff" cx="940.32" cy="542.658" rx="32.5" ry="20"/>
    <ellipse style="fill: none; fill-opacity:0; stroke-width: 2; stroke: #000000" cx="940.32" cy="542.658" rx="32.5" ry="20"/>
    <text font-size="12.8" style="fill: #000000;text-anchor:middle;font-family:sans-serif;font-style:normal;font-weight:normal" x="940.32" y="546.558">
      <tspan x="940.32" y="546.558">NSC</tspan>
    </text>
  </g>
  <g>
    <line style="fill: none; fill-opacity:0; stroke-width: 2; stroke: #000000" x1="199.445" y1="245.537" x2="509.488" y2="192.871"/>
    <polygon style="fill: #000000" points="516.882,191.615 507.861,198.219 509.488,192.871 506.186,188.361 "/>
    <polygon style="fill: none; fill-opacity:0; stroke-width: 2; stroke: #000000" points="516.882,191.615 507.861,198.219 509.488,192.871 506.186,188.361 "/>
  </g>
  <g>
    <line style="fill: none; fill-opacity:0; stroke-width: 2; stroke: #000000" x1="671.415" y1="524.383" x2="897.131" y2="539.723"/>
    <polygon style="fill: #000000" points="904.614,540.231 894.298,544.542 897.131,539.723 894.976,534.565 "/>
    <polygon style="fill: none; fill-opacity:0; stroke-width: 2; stroke: #000000" points="904.614,540.231 894.298,544.542 897.131,539.723 894.976,534.565 "/>
  </g>
  <g>
    <ellipse style="fill: #ffffff" cx="627.058" cy="443.709" rx="66.95" ry="22.3167"/>
    <ellipse style="fill: none; fill-opacity:0; stroke-width: 2; stroke: #000000" cx="627.058" cy="443.709" rx="66.95" ry="22.3167"/>
    <text font-size="12.8" style="fill: #000000;text-anchor:middle;font-family:sans-serif;font-style:normal;font-weight:normal" x="627.058" y="447.609">
      <tspan x="627.058" y="447.609">read Relaiton</tspan>
    </text>
  </g>
  <g>
    <line style="fill: none; fill-opacity:0; stroke-width: 2; stroke: #000000" x1="199.445" y1="261.061" x2="563.562" y2="416.587"/>
    <polygon style="fill: #000000" points="570.459,419.533 559.299,420.204 563.562,416.587 563.227,411.007 "/>
    <polygon style="fill: none; fill-opacity:0; stroke-width: 2; stroke: #000000" points="570.459,419.533 559.299,420.204 563.562,416.587 563.227,411.007 "/>
  </g>
  <g>
    <line style="fill: none; fill-opacity:0; stroke-width: 2; stroke: #000000" x1="673.511" y1="420.389" x2="762.493" y2="375.719"/>
    <polygon style="fill: #000000" points="769.196,372.354 762.502,381.309 762.493,375.719 758.016,372.372 "/>
    <polygon style="fill: none; fill-opacity:0; stroke-width: 2; stroke: #000000" points="769.196,372.354 762.502,381.309 762.493,375.719 758.016,372.372 "/>
  </g>
  <g>
    <ellipse style="fill: #ffffff" cx="859.749" cy="227.38" rx="32.5" ry="20"/>
    <ellipse style="fill: none; fill-opacity:0; stroke-width: 2; stroke: #000000" cx="859.749" cy="227.38" rx="32.5" ry="20"/>
    <text font-size="12.8" style="fill: #000000;text-anchor:middle;font-family:sans-serif;font-style:normal;font-weight:normal" x="859.749" y="231.28">
      <tspan x="859.749" y="231.28">SC</tspan>
    </text>
  </g>
  <g>
    <ellipse style="fill: #ffffff" cx="683.072" cy="287.284" rx="32.5" ry="20"/>
    <ellipse style="fill: none; fill-opacity:0; stroke-width: 2; stroke: #000000" cx="683.072" cy="287.284" rx="32.5" ry="20"/>
    <text font-size="12.8" style="fill: #000000;text-anchor:middle;font-family:sans-serif;font-style:normal;font-weight:normal" x="683.072" y="291.184">
      <tspan x="683.072" y="291.184">write</tspan>
    </text>
  </g>
  <g>
    <ellipse style="fill: #ffffff" cx="612.277" cy="231.498" rx="56.175" ry="20"/>
    <ellipse style="fill: none; fill-opacity:0; stroke-width: 2; stroke: #000000" cx="612.277" cy="231.498" rx="56.175" ry="20"/>
    <text font-size="12.8" style="fill: #000000;text-anchor:middle;font-family:sans-serif;font-style:normal;font-weight:normal" x="612.277" y="235.398">
      <tspan x="612.277" y="235.398">read stats</tspan>
    </text>
  </g>
  <g>
    <ellipse style="fill: #ffffff" cx="635.594" cy="348.741" rx="72.85" ry="24.2833"/>
    <ellipse style="fill: none; fill-opacity:0; stroke-width: 2; stroke: #000000" cx="635.594" cy="348.741" rx="72.85" ry="24.2833"/>
    <text font-size="12.8" style="fill: #000000;text-anchor:middle;font-family:sans-serif;font-style:normal;font-weight:normal" x="635.594" y="352.641">
      <tspan x="635.594" y="352.641">create Relation</tspan>
    </text>
  </g>
  <g>
    <line style="fill: none; fill-opacity:0; stroke-width: 2; stroke: #000000" x1="199.382" y1="251.854" x2="639.877" y2="284.12"/>
    <polygon style="fill: #000000" points="647.357,284.668 637.018,288.924 639.877,284.12 637.749,278.951 "/>
    <polygon style="fill: none; fill-opacity:0; stroke-width: 2; stroke: #000000" points="647.357,284.668 637.018,288.924 639.877,284.12 637.749,278.951 "/>
  </g>
  <g>
    <line style="fill: none; fill-opacity:0; stroke-width: 2; stroke: #000000" x1="199.435" y1="248.861" x2="545.378" y2="234.312"/>
    <polygon style="fill: #000000" points="552.871,233.996 543.09,239.412 545.378,234.312 542.67,229.421 "/>
    <polygon style="fill: none; fill-opacity:0; stroke-width: 2; stroke: #000000" points="552.871,233.996 543.09,239.412 545.378,234.312 542.67,229.421 "/>
  </g>
  <g>
    <line style="fill: none; fill-opacity:0; stroke-width: 2; stroke: #000000" x1="716.566" y1="275.928" x2="817.035" y2="241.863"/>
    <polygon style="fill: #000000" points="824.138,239.455 816.273,247.401 817.035,241.863 813.062,237.93 "/>
    <polygon style="fill: none; fill-opacity:0; stroke-width: 2; stroke: #000000" points="824.138,239.455 816.273,247.401 817.035,241.863 813.062,237.93 "/>
  </g>
  <g>
    <line style="fill: none; fill-opacity:0; stroke-width: 2; stroke: #000000" x1="669.447" y1="230.547" x2="816.527" y2="228.1"/>
    <polygon style="fill: #000000" points="824.026,227.975 814.111,233.14 816.527,228.1 813.945,223.142 "/>
    <polygon style="fill: none; fill-opacity:0; stroke-width: 2; stroke: #000000" points="824.026,227.975 814.111,233.14 816.527,228.1 813.945,223.142 "/>
  </g>
  <g>
    <line style="fill: none; fill-opacity:0; stroke-width: 2; stroke: #000000" x1="199.419" y1="255.507" x2="552.218" y2="330.919"/>
    <polygon style="fill: #000000" points="559.553,332.487 548.728,335.286 552.218,330.919 550.819,325.507 "/>
    <polygon style="fill: none; fill-opacity:0; stroke-width: 2; stroke: #000000" points="559.553,332.487 548.728,335.286 552.218,330.919 550.819,325.507 "/>
  </g>
  <g>
    <line style="fill: none; fill-opacity:0; stroke-width: 2; stroke: #000000" x1="820.971" y1="329.405" x2="848.324" y2="257.439"/>
    <polygon style="fill: #000000" points="850.989,250.428 852.11,261.552 848.324,257.439 842.762,257.999 "/>
    <polygon style="fill: none; fill-opacity:0; stroke-width: 2; stroke: #000000" points="850.989,250.428 852.11,261.552 848.324,257.439 842.762,257.999 "/>
  </g>
  <text font-size="12.8" style="fill: #000000;text-anchor:start;font-family:sans-serif;font-style:normal;font-weight:normal" x="953.978" y="876.312">
    <tspan x="953.978" y="876.312"></tspan>
  </text>
  <g>
    <ellipse style="fill: #ffffff" cx="813.005" cy="350.362" rx="50.35" ry="20"/>
    <ellipse style="fill: none; fill-opacity:0; stroke-width: 2; stroke: #000000" cx="813.005" cy="350.362" rx="50.35" ry="20"/>
    <text font-size="12.8" style="fill: #000000;text-anchor:middle;font-family:sans-serif;font-style:normal;font-weight:normal" x="813.005" y="354.262">
      <tspan x="813.005" y="354.262">Relation</tspan>
    </text>
  </g>
  <g>
    <line style="fill: none; fill-opacity:0; stroke-width: 2; stroke: #000000" x1="826.907" y1="371.359" x2="921.043" y2="513.543"/>
    <polygon style="fill: #000000" points="925.184,519.796 915.494,514.218 921.043,513.543 923.832,508.698 "/>
    <polygon style="fill: none; fill-opacity:0; stroke-width: 2; stroke: #000000" points="925.184,519.796 915.494,514.218 921.043,513.543 923.832,508.698 "/>
  </g>
  <g>
    <line style="fill: none; fill-opacity:0; stroke-width: 2; stroke: #000000" x1="716.578" y1="303.55" x2="761.041" y2="325.135"/>
    <polygon style="fill: #000000" points="767.788,328.411 756.609,328.541 761.041,325.135 760.976,319.545 "/>
    <polygon style="fill: none; fill-opacity:0; stroke-width: 2; stroke: #000000" points="767.788,328.411 756.609,328.541 761.041,325.135 760.976,319.545 "/>
  </g>
  <g>
    <line style="fill: none; fill-opacity:0; stroke-width: 2; stroke: #000000" x1="602.974" y1="190.191" x2="816.62" y2="221.134"/>
    <polygon style="fill: #000000" points="824.043,222.209 813.43,225.724 816.62,221.134 814.863,215.827 "/>
    <polygon style="fill: none; fill-opacity:0; stroke-width: 2; stroke: #000000" points="824.043,222.209 813.43,225.724 816.62,221.134 814.863,215.827 "/>
  </g>
  <g>
    <line style="fill: none; fill-opacity:0; stroke-width: 2; stroke: #000000" x1="708.444" y1="348.742" x2="751.96" y2="349.416"/>
    <polygon style="fill: #000000" points="759.459,349.532 749.383,354.377 751.96,349.416 749.537,344.378 "/>
    <polygon style="fill: none; fill-opacity:0; stroke-width: 2; stroke: #000000" points="759.459,349.532 749.383,354.377 751.96,349.416 749.537,344.378 "/>
  </g>
  <g>
    <line style="fill: none; fill-opacity:0; stroke-width: 2; stroke: #000000" x1="218.934" y1="758.173" x2="589.125" y2="472.937"/>
    <polygon style="fill: #000000" points="595.066,468.359 590.196,478.423 589.125,472.937 584.092,470.502 "/>
    <polygon style="fill: none; fill-opacity:0; stroke-width: 2; stroke: #000000" points="595.066,468.359 590.196,478.423 589.125,472.937 584.092,470.502 "/>
  </g>
  <g>
    <line style="fill: none; fill-opacity:0; stroke-width: 2; stroke: #000000" x1="219.03" y1="749.843" x2="602.317" y2="380.783"/>
    <polygon style="fill: #000000" points="607.719,375.581 603.984,386.119 602.317,380.783 597.048,378.916 "/>
    <polygon style="fill: none; fill-opacity:0; stroke-width: 2; stroke: #000000" points="607.719,375.581 603.984,386.119 602.317,380.783 597.048,378.916 "/>
  </g>
  <g>
    <line style="fill: none; fill-opacity:0; stroke-width: 2; stroke: #000000" x1="218.975" y1="736.166" x2="589.933" y2="260.169"/>
    <polygon style="fill: #000000" points="594.543,254.253 592.34,265.214 589.933,260.169 584.453,259.067 "/>
    <polygon style="fill: none; fill-opacity:0; stroke-width: 2; stroke: #000000" points="594.543,254.253 592.34,265.214 589.933,260.169 584.453,259.067 "/>
  </g>
  <g>
    <ellipse style="fill: #ffffff" cx="661.456" cy="569.57" rx="32.5" ry="20"/>
    <ellipse style="fill: none; fill-opacity:0; stroke-width: 2; stroke: #000000" cx="661.456" cy="569.57" rx="32.5" ry="20"/>
    <text font-size="12.8" style="fill: #000000;text-anchor:middle;font-family:sans-serif;font-style:normal;font-weight:normal" x="661.456" y="573.47">
      <tspan x="661.456" y="573.47">write</tspan>
    </text>
  </g>
  <g>
    <ellipse style="fill: #ffffff" cx="666.634" cy="627.366" rx="40.95" ry="20"/>
    <ellipse style="fill: none; fill-opacity:0; stroke-width: 2; stroke: #000000" cx="666.634" cy="627.366" rx="40.95" ry="20"/>
    <text font-size="12.8" style="fill: #000000;text-anchor:middle;font-family:sans-serif;font-style:normal;font-weight:normal" x="666.634" y="631.266">
      <tspan x="666.634" y="631.266">create</tspan>
    </text>
  </g>
  <g>
    <line style="fill: none; fill-opacity:0; stroke-width: 2; stroke: #000000" x1="219.039" y1="771.57" x2="619.11" y2="588.904"/>
    <polygon style="fill: #000000" points="625.933,585.789 618.913,594.491 619.11,588.904 614.759,585.394 "/>
    <polygon style="fill: none; fill-opacity:0; stroke-width: 2; stroke: #000000" points="625.933,585.789 618.913,594.491 619.11,588.904 614.759,585.394 "/>
  </g>
  <g>
    <line style="fill: none; fill-opacity:0; stroke-width: 2; stroke: #000000" x1="694.961" y1="566.337" x2="897.124" y2="546.827"/>
    <polygon style="fill: #000000" points="904.589,546.106 895.116,552.044 897.124,546.827 894.155,542.09 "/>
    <polygon style="fill: none; fill-opacity:0; stroke-width: 2; stroke: #000000" points="904.589,546.106 895.116,552.044 897.124,546.827 894.155,542.09 "/>
  </g>
  <g>
    <ellipse style="fill: #ffffff" cx="614.247" cy="520.498" rx="56.175" ry="20"/>
    <ellipse style="fill: none; fill-opacity:0; stroke-width: 2; stroke: #000000" cx="614.247" cy="520.498" rx="56.175" ry="20"/>
    <text font-size="12.8" style="fill: #000000;text-anchor:middle;font-family:sans-serif;font-style:normal;font-weight:normal" x="614.247" y="524.398">
      <tspan x="614.247" y="524.398">read stats</tspan>
    </text>
  </g>
  <g>
    <line style="fill: none; fill-opacity:0; stroke-width: 2; stroke: #000000" x1="219.035" y1="764.652" x2="572.055" y2="546.563"/>
    <polygon style="fill: #000000" points="578.436,542.621 572.556,552.131 572.055,546.563 567.301,543.623 "/>
    <polygon style="fill: none; fill-opacity:0; stroke-width: 2; stroke: #000000" points="578.436,542.621 572.556,552.131 572.055,546.563 567.301,543.623 "/>
  </g>
  <g>
    <line style="fill: none; fill-opacity:0; stroke-width: 2; stroke: #000000" x1="219.01" y1="776.845" x2="615.447" y2="644.459"/>
    <polygon style="fill: #000000" points="622.561,642.084 614.659,649.994 615.447,644.459 611.492,640.509 "/>
    <polygon style="fill: none; fill-opacity:0; stroke-width: 2; stroke: #000000" points="622.561,642.084 614.659,649.994 615.447,644.459 611.492,640.509 "/>
  </g>
  <g>
    <line style="fill: none; fill-opacity:0; stroke-width: 2; stroke: #000000" x1="708.462" y1="614.42" x2="897.527" y2="555.903"/>
    <polygon style="fill: #000000" points="904.691,553.685 896.617,561.418 897.527,555.903 893.66,551.866 "/>
    <polygon style="fill: none; fill-opacity:0; stroke-width: 2; stroke: #000000" points="904.691,553.685 896.617,561.418 897.527,555.903 893.66,551.866 "/>
  </g>
  <g>
    <line style="fill: none; fill-opacity:0; stroke-width: 2; stroke: #000000" x1="682.578" y1="606.364" x2="993.919" y2="196.244"/>
    <polygon style="fill: #000000" points="998.454,190.271 996.39,201.259 993.919,196.244 988.425,195.212 "/>
    <polygon style="fill: none; fill-opacity:0; stroke-width: 2; stroke: #000000" points="998.454,190.271 996.39,201.259 993.919,196.244 988.425,195.212 "/>
  </g>
  <g>
    <line style="fill: none; fill-opacity:0; stroke-width: 2; stroke: #000000" x1="675.969" y1="548.578" x2="792.956" y2="379.363"/>
    <polygon style="fill: #000000" points="797.221,373.193 795.647,384.262 792.956,379.363 787.421,378.576 "/>
    <polygon style="fill: none; fill-opacity:0; stroke-width: 2; stroke: #000000" points="797.221,373.193 795.647,384.262 792.956,379.363 787.421,378.576 "/>
  </g>
  <g>
    <ellipse style="fill: #ffffff" cx="696.352" cy="672.078" rx="32.5" ry="20"/>
    <ellipse style="fill: none; fill-opacity:0; stroke-width: 2; stroke: #000000" cx="696.352" cy="672.078" rx="32.5" ry="20"/>
    <text font-size="12.8" style="fill: #000000;text-anchor:middle;font-family:sans-serif;font-style:normal;font-weight:normal" x="696.352" y="675.978">
      <tspan x="696.352" y="675.978">read</tspan>
    </text>
  </g>
  <g>
    <line style="fill: none; fill-opacity:0; stroke-width: 2; stroke: #000000" x1="709.628" y1="651.105" x2="997.267" y2="196.687"/>
    <polygon style="fill: #000000" points="1001.28,190.35 1000.15,201.474 997.267,196.687 991.705,196.125 "/>
    <polygon style="fill: none; fill-opacity:0; stroke-width: 2; stroke: #000000" points="1001.28,190.35 1000.15,201.474 997.267,196.687 991.705,196.125 "/>
  </g>
  <g>
    <ellipse style="fill: #ffffff" cx="679.202" cy="724.799" rx="49.45" ry="20"/>
    <ellipse style="fill: none; fill-opacity:0; stroke-width: 2; stroke: #000000" cx="679.202" cy="724.799" rx="49.45" ry="20"/>
    <text font-size="12.8" style="fill: #000000;text-anchor:middle;font-family:sans-serif;font-style:normal;font-weight:normal" x="679.202" y="728.699">
      <tspan x="679.202" y="728.699">roll dice</tspan>
    </text>
  </g>
  <g>
    <line style="fill: none; fill-opacity:0; stroke-width: 2; stroke: #000000" x1="199.44" y1="274.364" x2="649.739" y2="697.137"/>
    <polygon style="fill: #000000" points="655.207,702.271 644.494,699.071 649.739,697.137 651.339,691.781 "/>
    <polygon style="fill: none; fill-opacity:0; stroke-width: 2; stroke: #000000" points="655.207,702.271 644.494,699.071 649.739,697.137 651.339,691.781 "/>
  </g>
  <g>
    <line style="fill: none; fill-opacity:0; stroke-width: 2; stroke: #000000" x1="219.004" y1="785.513" x2="619.114" y2="732.726"/>
    <polygon style="fill: #000000" points="626.55,731.745 617.29,738.01 619.114,732.726 615.982,728.096 "/>
    <polygon style="fill: none; fill-opacity:0; stroke-width: 2; stroke: #000000" points="626.55,731.745 617.29,738.01 619.114,732.726 615.982,728.096 "/>
  </g>
  <g>
    <ellipse style="fill: #ffffff" cx="967.549" cy="713.315" rx="57.875" ry="20"/>
    <ellipse style="fill: none; fill-opacity:0; stroke-width: 2; stroke: #000000" cx="967.549" cy="713.315" rx="57.875" ry="20"/>
    <text font-size="12.8" style="fill: #000000;text-anchor:middle;font-family:sans-serif;font-style:normal;font-weight:normal" x="967.549" y="717.215">
      <tspan x="967.549" y="717.215">Skill check</tspan>
    </text>
  </g>
  <g>
    <line style="fill: none; fill-opacity:0; stroke-width: 2; stroke: #000000" x1="729.651" y1="722.79" x2="898.951" y2="716.047"/>
    <polygon style="fill: #000000" points="906.445,715.748 896.652,721.142 898.951,716.047 896.254,711.15 "/>
    <polygon style="fill: none; fill-opacity:0; stroke-width: 2; stroke: #000000" points="906.445,715.748 896.652,721.142 898.951,716.047 896.254,711.15 "/>
  </g>
  <g>
    <ellipse style="fill: #ffffff" cx="751.675" cy="756.132" rx="58.825" ry="20"/>
    <ellipse style="fill: none; fill-opacity:0; stroke-width: 2; stroke: #000000" cx="751.675" cy="756.132" rx="58.825" ry="20"/>
    <text font-size="12.8" style="fill: #000000;text-anchor:middle;font-family:sans-serif;font-style:normal;font-weight:normal" x="751.675" y="760.032">
      <tspan x="751.675" y="760.032">read result</tspan>
    </text>
  </g>
  <g>
    <line style="fill: none; fill-opacity:0; stroke-width: 2; stroke: #000000" x1="219.001" y1="788.561" x2="682.148" y2="760.365"/>
    <polygon style="fill: #000000" points="689.634,759.909 679.957,765.507 682.148,760.365 679.349,755.526 "/>
    <polygon style="fill: none; fill-opacity:0; stroke-width: 2; stroke: #000000" points="689.634,759.909 679.957,765.507 682.148,760.365 679.349,755.526 "/>
  </g>
  <g>
    <line style="fill: none; fill-opacity:0; stroke-width: 2; stroke: #000000" x1="811.507" y1="744.265" x2="899.122" y2="726.887"/>
    <polygon style="fill: #000000" points="906.479,725.427 897.643,732.277 899.122,726.887 895.697,722.468 "/>
    <polygon style="fill: none; fill-opacity:0; stroke-width: 2; stroke: #000000" points="906.479,725.427 897.643,732.277 899.122,726.887 895.697,722.468 "/>
  </g>
  <g>
    <ellipse style="fill: #ffffff" cx="848.425" cy="785.382" rx="55.875" ry="20"/>
    <ellipse style="fill: none; fill-opacity:0; stroke-width: 2; stroke: #000000" cx="848.425" cy="785.382" rx="55.875" ry="20"/>
    <text font-size="12.8" style="fill: #000000;text-anchor:middle;font-family:sans-serif;font-style:normal;font-weight:normal" x="848.425" y="789.282">
      <tspan x="848.425" y="789.282">def. mods</tspan>
    </text>
  </g>
  <g>
    <line style="fill: none; fill-opacity:0; stroke-width: 2; stroke: #000000" x1="219.04" y1="790.802" x2="781.816" y2="785.956"/>
    <polygon style="fill: #000000" points="789.316,785.891 779.36,790.977 781.816,785.956 779.274,780.977 "/>
    <polygon style="fill: none; fill-opacity:0; stroke-width: 2; stroke: #000000" points="789.316,785.891 779.36,790.977 781.816,785.956 779.274,780.977 "/>
  </g>
  <g>
    <line style="fill: none; fill-opacity:0; stroke-width: 2; stroke: #000000" x1="883.121" y1="764.392" x2="924.523" y2="739.345"/>
    <polygon style="fill: #000000" points="930.94,735.462 924.972,744.917 924.523,739.345 919.795,736.361 "/>
    <polygon style="fill: none; fill-opacity:0; stroke-width: 2; stroke: #000000" points="930.94,735.462 924.972,744.917 924.523,739.345 919.795,736.361 "/>
  </g>
  <g>
    <ellipse style="fill: #ffffff" cx="924.381" cy="888.168" rx="40.35" ry="20"/>
    <ellipse style="fill: none; fill-opacity:0; stroke-width: 2; stroke: #000000" cx="924.381" cy="888.168" rx="40.35" ry="20"/>
    <text font-size="12.8" style="fill: #000000;text-anchor:middle;font-family:sans-serif;font-style:normal;font-weight:normal" x="924.381" y="892.068">
      <tspan x="924.381" y="892.068">Sound</tspan>
    </text>
  </g>
  <g>
    <ellipse style="fill: #ffffff" cx="698.894" cy="938.894" rx="87.625" ry="29.2083"/>
    <ellipse style="fill: none; fill-opacity:0; stroke-width: 2; stroke: #000000" cx="698.894" cy="938.894" rx="87.625" ry="29.2083"/>
    <text font-size="12.8" style="fill: #000000;text-anchor:middle;font-family:sans-serif;font-style:normal;font-weight:normal" x="698.894" y="942.794">
      <tspan x="698.894" y="942.794">create/edite Playlist</tspan>
    </text>
  </g>
  <g>
    <ellipse style="fill: #ffffff" cx="720.628" cy="998.13" rx="72.325" ry="24.1083"/>
    <ellipse style="fill: none; fill-opacity:0; stroke-width: 2; stroke: #000000" cx="720.628" cy="998.13" rx="72.325" ry="24.1083"/>
    <text font-size="12.8" style="fill: #000000;text-anchor:middle;font-family:sans-serif;font-style:normal;font-weight:normal" x="720.628" y="1002.03">
      <tspan x="720.628" y="1002.03">change Playlist</tspan>
    </text>
  </g>
  <g>
    <line style="fill: none; fill-opacity:0; stroke-width: 2; stroke: #000000" x1="219.032" y1="803.301" x2="600.916" y2="911.209"/>
    <polygon style="fill: #000000" points="608.133,913.248 597.15,915.341 600.916,911.209 599.869,905.717 "/>
    <polygon style="fill: none; fill-opacity:0; stroke-width: 2; stroke: #000000" points="608.133,913.248 597.15,915.341 600.916,911.209 599.869,905.717 "/>
  </g>
  <g>
    <line style="fill: none; fill-opacity:0; stroke-width: 2; stroke: #000000" x1="218.98" y1="807.467" x2="645.523" y2="969.585"/>
    <polygon style="fill: #000000" points="652.533,972.249 641.409,973.37 645.523,969.585 644.962,964.023 "/>
    <polygon style="fill: none; fill-opacity:0; stroke-width: 2; stroke: #000000" points="652.533,972.249 641.409,973.37 645.523,969.585 644.962,964.023 "/>
  </g>
  <g>
    <line style="fill: none; fill-opacity:0; stroke-width: 2; stroke: #000000" x1="787.471" y1="918.968" x2="873.533" y2="899.607"/>
    <polygon style="fill: #000000" points="880.85,897.961 872.191,905.034 873.533,899.607 869.996,895.278 "/>
    <polygon style="fill: none; fill-opacity:0; stroke-width: 2; stroke: #000000" points="880.85,897.961 872.191,905.034 873.533,899.607 869.996,895.278 "/>
  </g>
  <g>
    <line style="fill: none; fill-opacity:0; stroke-width: 2; stroke: #000000" x1="766.99" y1="973.11" x2="876.901" y2="913.792"/>
    <polygon style="fill: #000000" points="883.501,910.23 877.075,919.38 876.901,913.792 872.326,910.58 "/>
    <polygon style="fill: none; fill-opacity:0; stroke-width: 2; stroke: #000000" points="883.501,910.23 877.075,919.38 876.901,913.792 872.326,910.58 "/>
  </g>
  <g>
    <ellipse style="fill: #ffffff" cx="647.096" cy="876.613" rx="87.625" ry="29.2083"/>
    <ellipse style="fill: none; fill-opacity:0; stroke-width: 2; stroke: #000000" cx="647.096" cy="876.613" rx="87.625" ry="29.2083"/>
    <text font-size="12.8" style="fill: #000000;text-anchor:middle;font-family:sans-serif;font-style:normal;font-weight:normal" x="647.096" y="880.513">
      <tspan x="647.096" y="880.513">create/edite Playlist</tspan>
    </text>
  </g>
  <g>
    <line style="fill: none; fill-opacity:0; stroke-width: 2; stroke: #000000" x1="199.401" y1="284.301" x2="618.415" y2="838.668"/>
    <polygon style="fill: #000000" points="622.938,844.651 612.919,839.688 618.415,838.668 620.897,833.659 "/>
    <polygon style="fill: none; fill-opacity:0; stroke-width: 2; stroke: #000000" points="622.938,844.651 612.919,839.688 618.415,838.668 620.897,833.659 "/>
  </g>
  <g>
    <line style="fill: none; fill-opacity:0; stroke-width: 2; stroke: #000000" x1="735.719" y1="880.306" x2="873.325" y2="886.04"/>
    <polygon style="fill: #000000" points="880.818,886.352 870.619,890.932 873.325,886.04 871.035,880.94 "/>
    <polygon style="fill: none; fill-opacity:0; stroke-width: 2; stroke: #000000" points="880.818,886.352 870.619,890.932 873.325,886.04 871.035,880.94 "/>
  </g>
  <g>
    <ellipse style="fill: #ffffff" cx="840.132" cy="1089.24" rx="71.15" ry="23.7167"/>
    <ellipse style="fill: none; fill-opacity:0; stroke-width: 2; stroke: #000000" cx="840.132" cy="1089.24" rx="71.15" ry="23.7167"/>
    <text font-size="12.7998" style="fill: #000000;text-anchor:middle;font-family:sans-serif;font-style:normal;font-weight:normal" x="840.132" y="1093.14">
      <tspan x="840.132" y="1093.14">Item Database</tspan>
    </text>
  </g>
  <g>
    <ellipse style="fill: #ffffff" cx="591.831" cy="1049.54" rx="40.95" ry="20"/>
    <ellipse style="fill: none; fill-opacity:0; stroke-width: 2; stroke: #000000" cx="591.831" cy="1049.54" rx="40.95" ry="20"/>
    <text font-size="12.7998" style="fill: #000000;text-anchor:middle;font-family:sans-serif;font-style:normal;font-weight:normal" x="591.831" y="1053.44">
      <tspan x="591.831" y="1053.44">create</tspan>
    </text>
  </g>
  <g>
    <ellipse style="fill: #ffffff" cx="591.014" cy="993.92" rx="32.5" ry="20"/>
    <ellipse style="fill: none; fill-opacity:0; stroke-width: 2; stroke: #000000" cx="591.014" cy="993.92" rx="32.5" ry="20"/>
    <text font-size="12.7998" style="fill: #000000;text-anchor:middle;font-family:sans-serif;font-style:normal;font-weight:normal" x="591.014" y="997.82">
      <tspan x="591.014" y="997.82">read</tspan>
    </text>
  </g>
  <g>
    <ellipse style="fill: #ffffff" cx="603.901" cy="1096.45" rx="32.5" ry="20"/>
    <ellipse style="fill: none; fill-opacity:0; stroke-width: 2; stroke: #000000" cx="603.901" cy="1096.45" rx="32.5" ry="20"/>
    <text font-size="12.7998" style="fill: #000000;text-anchor:middle;font-family:sans-serif;font-style:normal;font-weight:normal" x="603.901" y="1100.35">
      <tspan x="603.901" y="1100.35">read</tspan>
    </text>
  </g>
  <g>
    <line style="fill: none; fill-opacity:0; stroke-width: 2; stroke: #000000" x1="199.443" y1="296.282" x2="574.468" y2="964.44"/>
    <polygon style="fill: #000000" points="578.139,970.98 568.884,964.707 574.468,964.44 577.604,959.813 "/>
    <polygon style="fill: none; fill-opacity:0; stroke-width: 2; stroke: #000000" points="578.139,970.98 568.884,964.707 574.468,964.44 577.604,959.813 "/>
  </g>
  <g>
    <line style="fill: none; fill-opacity:0; stroke-width: 2; stroke: #000000" x1="218.989" y1="817.822" x2="549.814" y2="1023.42"/>
    <polygon style="fill: #000000" points="556.184,1027.38 545.052,1026.35 549.814,1023.42 550.33,1017.86 "/>
    <polygon style="fill: none; fill-opacity:0; stroke-width: 2; stroke: #000000" points="556.184,1027.38 545.052,1026.35 549.814,1023.42 550.33,1017.86 "/>
  </g>
  <g>
    <line style="fill: none; fill-opacity:0; stroke-width: 2; stroke: #000000" x1="218.981" y1="821.767" x2="566.628" y2="1069.85"/>
    <polygon style="fill: #000000" points="572.733,1074.2 561.688,1072.47 566.628,1069.85 567.497,1064.33 "/>
    <polygon style="fill: none; fill-opacity:0; stroke-width: 2; stroke: #000000" points="572.733,1074.2 561.688,1072.47 566.628,1069.85 567.497,1064.33 "/>
  </g>
  <g>
    <line style="fill: none; fill-opacity:0; stroke-width: 2; stroke: #000000" x1="633.788" y1="1056.24" x2="758.365" y2="1076.16"/>
    <polygon style="fill: #000000" points="765.771,1077.35 755.107,1080.71 758.365,1076.16 756.686,1070.83 "/>
    <polygon style="fill: none; fill-opacity:0; stroke-width: 2; stroke: #000000" points="765.771,1077.35 755.107,1080.71 758.365,1076.16 756.686,1070.83 "/>
  </g>
  <g>
    <line style="fill: none; fill-opacity:0; stroke-width: 2; stroke: #000000" x1="637.38" y1="1095.42" x2="758.244" y2="1091.74"/>
    <polygon style="fill: #000000" points="765.74,1091.51 755.897,1096.81 758.244,1091.74 755.592,1086.82 "/>
    <polygon style="fill: none; fill-opacity:0; stroke-width: 2; stroke: #000000" points="765.74,1091.51 755.897,1096.81 758.244,1091.74 755.592,1086.82 "/>
  </g>
  <g>
    <line style="fill: none; fill-opacity:0; stroke-width: 2; stroke: #000000" x1="624.496" y1="1006.73" x2="766.433" y2="1061.04"/>
    <polygon style="fill: #000000" points="773.438,1063.72 762.312,1064.82 766.433,1061.04 765.885,1055.48 "/>
    <polygon style="fill: none; fill-opacity:0; stroke-width: 2; stroke: #000000" points="773.438,1063.72 762.312,1064.82 766.433,1061.04 765.885,1055.48 "/>
  </g>
  <g>
    <ellipse style="fill: #ffffff" cx="678.764" cy="824.891" rx="57" ry="20"/>
    <ellipse style="fill: none; fill-opacity:0; stroke-width: 2; stroke: #000000" cx="678.764" cy="824.891" rx="57" ry="20"/>
    <text font-size="12.7998" style="fill: #000000;text-anchor:middle;font-family:sans-serif;font-style:normal;font-weight:normal" x="678.764" y="828.791">
      <tspan x="678.764" y="828.791">voice chat</tspan>
    </text>
  </g>
  <g>
    <line style="fill: none; fill-opacity:0; stroke-width: 2; stroke: #000000" x1="199.425" y1="279.518" x2="653.877" y2="796.576"/>
    <polygon style="fill: #000000" points="658.828,802.21 648.471,797.999 653.877,796.576 655.982,791.398 "/>
    <polygon style="fill: none; fill-opacity:0; stroke-width: 2; stroke: #000000" points="658.828,802.21 648.471,797.999 653.877,796.576 655.982,791.398 "/>
  </g>
  <g>
    <line style="fill: none; fill-opacity:0; stroke-width: 2; stroke: #000000" x1="219.036" y1="794.052" x2="611.05" y2="820.349"/>
    <polygon style="fill: #000000" points="618.533,820.851 608.22,825.17 611.05,820.349 608.89,815.193 "/>
    <polygon style="fill: none; fill-opacity:0; stroke-width: 2; stroke: #000000" points="618.533,820.851 608.22,825.17 611.05,820.349 608.89,815.193 "/>
  </g>
  <g>
    <line style="fill: none; fill-opacity:0; stroke-width: 2; stroke: #000000" x1="736.765" y1="839.834" x2="873.599" y2="875.085"/>
    <polygon style="fill: #000000" points="880.862,876.956 869.931,879.304 873.599,875.085 872.426,869.62 "/>
    <polygon style="fill: none; fill-opacity:0; stroke-width: 2; stroke: #000000" points="880.862,876.956 869.931,879.304 873.599,875.085 872.426,869.62 "/>
  </g>
  <g>
    <ellipse style="fill: #ffffff" cx="931.614" cy="1158.86" rx="51.4" ry="20"/>
    <ellipse style="fill: none; fill-opacity:0; stroke-width: 2; stroke: #000000" cx="931.614" cy="1158.86" rx="51.4" ry="20"/>
    <text font-size="12.7998" style="fill: #000000;text-anchor:middle;font-family:sans-serif;font-style:normal;font-weight:normal" x="931.614" y="1162.76">
      <tspan x="931.614" y="1162.76">Timeline</tspan>
    </text>
  </g>
  <g>
    <ellipse style="fill: #ffffff" cx="710.034" cy="1187.1" rx="36.5" ry="20"/>
    <ellipse style="fill: none; fill-opacity:0; stroke-width: 2; stroke: #000000" cx="710.034" cy="1187.1" rx="36.5" ry="20"/>
    <text font-size="12.7998" style="fill: #000000;text-anchor:middle;font-family:sans-serif;font-style:normal;font-weight:normal" x="710.034" y="1191">
      <tspan x="710.034" y="1191">event</tspan>
    </text>
  </g>
  <g>
    <ellipse style="fill: #ffffff" cx="593.779" cy="1191.59" rx="40.95" ry="20"/>
    <ellipse style="fill: none; fill-opacity:0; stroke-width: 2; stroke: #000000" cx="593.779" cy="1191.59" rx="40.95" ry="20"/>
    <text font-size="12.7998" style="fill: #000000;text-anchor:middle;font-family:sans-serif;font-style:normal;font-weight:normal" x="593.779" y="1195.49">
      <tspan x="593.779" y="1195.49">create</tspan>
    </text>
  </g>
  <g>
    <ellipse style="fill: #ffffff" cx="604.739" cy="1142.86" rx="32.5" ry="20"/>
    <ellipse style="fill: none; fill-opacity:0; stroke-width: 2; stroke: #000000" cx="604.739" cy="1142.86" rx="32.5" ry="20"/>
    <text font-size="12.7998" style="fill: #000000;text-anchor:middle;font-family:sans-serif;font-style:normal;font-weight:normal" x="604.739" y="1146.76">
      <tspan x="604.739" y="1146.76">read</tspan>
    </text>
  </g>
  <g>
    <line style="fill: none; fill-opacity:0; stroke-width: 2; stroke: #000000" x1="218.986" y1="832.279" x2="564.878" y2="1163.88"/>
    <polygon style="fill: #000000" points="570.292,1169.07 559.614,1165.76 564.878,1163.88 566.534,1158.54 "/>
    <polygon style="fill: none; fill-opacity:0; stroke-width: 2; stroke: #000000" points="570.292,1169.07 559.614,1165.76 564.878,1163.88 566.534,1158.54 "/>
  </g>
  <g>
    <line style="fill: none; fill-opacity:0; stroke-width: 2; stroke: #000000" x1="219.025" y1="826.386" x2="571.613" y2="1115.68"/>
    <polygon style="fill: #000000" points="577.411,1120.44 566.509,1117.96 571.613,1115.68 572.852,1110.23 "/>
    <polygon style="fill: none; fill-opacity:0; stroke-width: 2; stroke: #000000" points="577.411,1120.44 566.509,1117.96 571.613,1115.68 572.852,1110.23 "/>
  </g>
  <g>
    <line style="fill: none; fill-opacity:0; stroke-width: 2; stroke: #000000" x1="635.736" y1="1189.97" x2="662.804" y2="1188.92"/>
    <polygon style="fill: #000000" points="670.299,1188.64 660.499,1194.02 662.804,1188.92 660.114,1184.03 "/>
    <polygon style="fill: none; fill-opacity:0; stroke-width: 2; stroke: #000000" points="670.299,1188.64 660.499,1194.02 662.804,1188.92 660.114,1184.03 "/>
  </g>
  <g>
    <line style="fill: none; fill-opacity:0; stroke-width: 2; stroke: #000000" x1="638.241" y1="1156.94" x2="663.564" y2="1167.58"/>
    <polygon style="fill: #000000" points="670.479,1170.48 659.323,1171.22 663.564,1167.58 663.196,1162 "/>
    <polygon style="fill: none; fill-opacity:0; stroke-width: 2; stroke: #000000" points="670.479,1170.48 659.323,1171.22 663.564,1167.58 663.196,1162 "/>
  </g>
  <g>
    <line style="fill: none; fill-opacity:0; stroke-width: 2; stroke: #000000" x1="747.536" y1="1182.32" x2="869.563" y2="1166.77"/>
    <polygon style="fill: #000000" points="877.003,1165.82 867.716,1172.04 869.563,1166.77 866.451,1162.12 "/>
    <polygon style="fill: none; fill-opacity:0; stroke-width: 2; stroke: #000000" points="877.003,1165.82 867.716,1172.04 869.563,1166.77 866.451,1162.12 "/>
  </g>
  <g>
    <ellipse style="fill: #ffffff" cx="552.373" cy="1239.3" rx="40.95" ry="20"/>
    <ellipse style="fill: none; fill-opacity:0; stroke-width: 2; stroke: #000000" cx="552.373" cy="1239.3" rx="40.95" ry="20"/>
    <text font-size="12.7998" style="fill: #000000;text-anchor:middle;font-family:sans-serif;font-style:normal;font-weight:normal" x="552.373" y="1243.2">
      <tspan x="552.373" y="1243.2">create</tspan>
    </text>
  </g>
  <g>
    <ellipse style="fill: #ffffff" cx="541.742" cy="1286.19" rx="32.5" ry="20"/>
    <ellipse style="fill: none; fill-opacity:0; stroke-width: 2; stroke: #000000" cx="541.742" cy="1286.19" rx="32.5" ry="20"/>
    <text font-size="12.7998" style="fill: #000000;text-anchor:middle;font-family:sans-serif;font-style:normal;font-weight:normal" x="541.742" y="1290.09">
      <tspan x="541.742" y="1290.09">read</tspan>
    </text>
  </g>
  <g>
    <line style="fill: none; fill-opacity:0; stroke-width: 2; stroke: #000000" x1="194.498" y1="304.935" x2="540.888" y2="1209.32"/>
    <polygon style="fill: #000000" points="543.571,1216.32 535.325,1208.77 540.888,1209.32 544.663,1205.19 "/>
    <polygon style="fill: none; fill-opacity:0; stroke-width: 2; stroke: #000000" points="543.571,1216.32 535.325,1208.77 540.888,1209.32 544.663,1205.19 "/>
  </g>
  <g>
    <line style="fill: none; fill-opacity:0; stroke-width: 2; stroke: #000000" x1="191.264" y1="304.955" x2="506.241" y2="1276.93"/>
    <polygon style="fill: #000000" points="508.553,1284.07 500.713,1276.1 506.241,1276.93 510.226,1273.01 "/>
    <polygon style="fill: none; fill-opacity:0; stroke-width: 2; stroke: #000000" points="508.553,1284.07 500.713,1276.1 506.241,1276.93 510.226,1273.01 "/>
  </g>
  <g>
    <line style="fill: none; fill-opacity:0; stroke-width: 2; stroke: #000000" x1="594.29" y1="1225.42" x2="663.291" y2="1202.58"/>
    <polygon style="fill: #000000" points="670.411,1200.22 662.489,1208.11 663.291,1202.58 659.346,1198.62 "/>
    <polygon style="fill: none; fill-opacity:0; stroke-width: 2; stroke: #000000" points="670.411,1200.22 662.489,1208.11 663.291,1202.58 659.346,1198.62 "/>
  </g>
  <g>
    <line style="fill: none; fill-opacity:0; stroke-width: 2; stroke: #000000" x1="575.238" y1="1266.47" x2="665.97" y2="1213.05"/>
    <polygon style="fill: #000000" points="672.433,1209.24 666.353,1218.62 665.97,1213.05 661.279,1210.01 "/>
    <polygon style="fill: none; fill-opacity:0; stroke-width: 2; stroke: #000000" points="672.433,1209.24 666.353,1218.62 665.97,1213.05 661.279,1210.01 "/>
  </g>
  <g>
    <ellipse style="fill: #ffffff" cx="762.27" cy="1261.42" rx="65.6" ry="21.8667"/>
    <ellipse style="fill: none; fill-opacity:0; stroke-width: 2; stroke: #000000" cx="762.27" cy="1261.42" rx="65.6" ry="21.8667"/>
    <text font-size="12.7998" style="fill: #000000;text-anchor:middle;font-family:sans-serif;font-style:normal;font-weight:normal" x="762.27" y="1265.32">
      <tspan x="762.27" y="1265.32">statistic data</tspan>
    </text>
  </g>
  <g>
    <line style="fill: none; fill-opacity:0; stroke-width: 2; stroke: #000000" x1="800.017" y1="1238.56" x2="888.62" y2="1184.9"/>
    <polygon style="fill: #000000" points="895.035,1181.01 889.071,1190.47 888.62,1184.9 883.891,1181.92 "/>
    <polygon style="fill: none; fill-opacity:0; stroke-width: 2; stroke: #000000" points="895.035,1181.01 889.071,1190.47 888.62,1184.9 883.891,1181.92 "/>
  </g>
  <g>
    <line style="fill: none; fill-opacity:0; stroke-width: 2; stroke: #000000" x1="638.097" y1="1144.5" x2="869.489" y2="1155.82"/>
    <polygon style="fill: #000000" points="876.98,1156.19 866.747,1160.69 869.489,1155.82 867.236,1150.7 "/>
    <polygon style="fill: none; fill-opacity:0; stroke-width: 2; stroke: #000000" points="876.98,1156.19 866.747,1160.69 869.489,1155.82 867.236,1150.7 "/>
  </g>
  <g>
    <line style="fill: none; fill-opacity:0; stroke-width: 2; stroke: #000000" x1="573.724" y1="1275.75" x2="869.955" y2="1179"/>
    <polygon style="fill: #000000" points="877.084,1176.67 869.13,1184.53 869.955,1179 866.026,1175.02 "/>
    <polygon style="fill: none; fill-opacity:0; stroke-width: 2; stroke: #000000" points="877.084,1176.67 869.13,1184.53 869.955,1179 866.026,1175.02 "/>
  </g>
  <g>
    <rect style="fill: none; fill-opacity:0; stroke-width: 2; stroke: #000000" x="384.23" y="100.82" width="692.452" height="1224.26"/>
    <text font-size="12.7998" style="fill: #000000;text-anchor:middle;font-family:sans-serif;font-style:normal;font-weight:normal" x="730.456" y="716.85">
      <tspan x="730.456" y="716.85"></tspan>
    </text>
  </g>
</svg>
